<?xml version="1.0" standalone="no"?>
<!DOCTYPE svg PUBLIC "-//W3C//DTD SVG 20010904//EN"
 "http://www.w3.org/TR/2001/REC-SVG-20010904/DTD/svg10.dtd">
<svg version="1.0" xmlns="http://www.w3.org/2000/svg"
 width="512.000000pt" height="512.000000pt" viewBox="0 0 512.000000 512.000000"
 preserveAspectRatio="xMidYMid meet">
<metadata>
Created by potrace 1.11, written by Peter Selinger 2001-2013
</metadata>
<g transform="translate(0.000000,512.000000) scale(0.100000,-0.100000)"
fill="#000000" stroke="none">
<path d="M4305 5101 c-27 -13 -290 -269 -830 -810 -434 -434 -787 -792 -785
-794 3 -2 28 -20 55 -39 60 -43 140 -126 180 -186 15 -23 30 -42 34 -42 3 0
363 357 798 793 556 556 797 803 808 829 66 161 -103 323 -260 249z"/>
<path d="M517 3968 c-23 -14 -45 -38 -57 -63 -20 -41 -20 -63 -20 -1195 0
-1133 0 -1154 20 -1195 13 -26 34 -49 59 -63 l39 -22 2004 0 c1932 0 2005 1
2038 19 20 10 44 36 57 61 l23 43 0 1155 c0 1138 0 1156 -20 1196 -39 78 -47
81 -289 84 l-215 3 -542 -542 -541 -541 -6 -117 c-3 -64 -13 -143 -21 -176
-36 -130 -128 -288 -218 -371 -166 -153 -568 -284 -1135 -368 -266 -40 -315
-35 -364 40 -26 40 -24 108 7 317 70 472 178 848 299 1042 126 203 382 335
648 335 l82 0 190 190 190 190 -1095 0 -1095 0 -38 -22z"/>
<path d="M2166 3294 c-115 -28 -225 -100 -277 -182 -81 -128 -168 -424 -232
-794 -13 -76 -22 -139 -20 -141 6 -6 261 40 413 74 319 73 514 151 591 237 55
61 96 144 115 230 17 84 17 110 0 194 -20 93 -59 170 -121 236 -68 74 -141
117 -239 142 -91 23 -147 24 -230 4z"/>
<path d="M2159 1118 c-1 -2 -16 -185 -33 -408 l-31 -405 -245 -5 c-234 -5
-246 -6 -277 -28 -40 -28 -68 -98 -59 -146 8 -44 50 -94 93 -112 48 -21 1858
-21 1906 0 43 18 85 68 93 112 9 48 -19 118 -59 146 -31 22 -43 23 -277 28
l-245 5 -30 405 -30 405 -403 3 c-221 1 -403 1 -403 0z"/>
</g>
</svg>
